<?xml version="1.0" standalone="no"?>
<!DOCTYPE svg PUBLIC "-//W3C//DTD SVG 20010904//EN"
 "http://www.w3.org/TR/2001/REC-SVG-20010904/DTD/svg10.dtd">
<svg version="1.0" xmlns="http://www.w3.org/2000/svg"
 width="112.000000pt" height="112.000000pt" viewBox="0 0 112.000000 112.000000"
 preserveAspectRatio="xMidYMid meet">
<metadata>
Created by potrace 1.10, written by Peter Selinger 2001-2011
</metadata>
<g transform="translate(0.000000,112.000000) scale(0.100000,-0.100000)"
fill="#000000" stroke="none">
<path d="M460 849 c-96 -43 -159 -132 -168 -235 -9 -117 49 -219 156 -273 53
-27 56 -30 82 -102 15 -41 33 -74 41 -74 7 0 23 33 38 76 23 74 26 77 64 89
56 17 139 102 160 164 63 186 -70 376 -263 376 -44 0 -80 -7 -110 -21z m212
-43 c74 -32 126 -108 132 -192 2 -30 1 -64 -2 -77 -6 -20 -7 -20 -13 8 -4 17
-7 46 -8 66 -1 36 -17 58 -43 63 -41 7 -56 19 -62 48 -12 58 -29 68 -123 68
-93 0 -108 15 -37 35 42 12 101 5 156 -19z m-32 -111 l0 -55 53 0 53 0 -3 -87
c-2 -69 -7 -91 -20 -101 -12 -8 -62 -12 -165 -12 l-148 0 0 155 0 155 115 0
115 0 0 -55z m-270 -100 c0 -109 -10 -131 -30 -69 -19 57 -1 174 26 174 2 0 4
-47 4 -105z m316 -208 c-69 -44 -83 -56 -97 -87 l-16 -34 -26 40 c-14 22 -37
48 -52 58 -15 10 -24 13 -21 7 11 -18 2 -13 -17 9 -17 20 -16 20 116 19 106 0
128 -3 113 -12z"/>
<path d="M452 598 l3 -111 73 -3 72 -3 0 114 0 115 -75 0 -76 0 3 -112z m68
67 c0 -9 -9 -15 -25 -15 -16 0 -25 6 -25 15 0 9 9 15 25 15 16 0 25 -6 25 -15z
m60 0 c0 -9 -9 -15 -25 -15 -16 0 -25 6 -25 15 0 9 9 15 25 15 16 0 25 -6 25
-15z m-60 -65 c0 -15 -7 -20 -25 -20 -24 0 -34 18 -18 33 15 15 43 7 43 -13z
m58 -2 c3 -13 -3 -18 -22 -18 -20 0 -26 5 -26 21 0 15 5 20 22 17 13 -2 24
-11 26 -20z m-58 -68 c0 -15 -7 -20 -25 -20 -24 0 -34 18 -18 33 15 15 43 7
43 -13z m60 0 c0 -15 -7 -20 -25 -20 -18 0 -25 5 -25 20 0 15 7 20 25 20 18 0
25 -5 25 -20z"/>
<path d="M640 542 c0 -58 0 -59 30 -59 30 0 30 1 30 59 0 58 0 58 -30 58 -30
0 -30 0 -30 -58z"/>
</g>
</svg>
